{
    "asset" : {
        "generator" : "Khronos glTF Blender I/O v1.7.33",
        "version" : "2.0"
    },
    "scene" : 0,
    "scenes" : [
        {
            "name" : "Scene",
            "nodes" : [
                0
            ]
        }
    ],
    "nodes" : [
        {
            "mesh" : 0,
            "name" : "Sphere"
        }
    ],
    "materials" : [
        {
            "doubleSided" : true,
            "name" : "fire",
            "normalTexture" : {
                "index" : 0
            },
            "pbrMetallicRoughness" : {
                "baseColorTexture" : {
                    "index" : 1
                },
                "metallicFactor" : 0,
                "metallicRoughnessTexture" : {
                    "index" : 2
                }
            }
        }
    ],
    "meshes" : [
        {
            "name" : "Sphere.001",
            "primitives" : [
                {
                    "attributes" : {
                        "POSITION" : 0,
                        "NORMAL" : 1,
                        "TEXCOORD_0" : 2
                    },
                    "indices" : 3,
                    "material" : 0
                }
            ]
        }
    ],
    "textures" : [
        {
            "sampler" : 0,
            "source" : 0
        },
        {
            "sampler" : 0,
            "source" : 1
        },
        {
            "sampler" : 0,
            "source" : 2
        }
    ],
    "images" : [
        {
            "bufferView" : 4,
            "mimeType" : "image/png",
            "name" : "Fire_Normal"
        },
        {
            "bufferView" : 5,
            "mimeType" : "image/png",
            "name" : "Fire_Color"
        },
        {
            "bufferView" : 6,
            "mimeType" : "image/png",
            "name" : "Fire_Roughness"
        }
    ],
    "accessors" : [
        {
            "bufferView" : 0,
            "componentType" : 5126,
            "count" : 16445,
            "max" : [
                1.1511589288711548,
                1.8760263919830322,
                1.1387360095977783
            ],
            "min" : [
                -1.1774615049362183,
                -0.9533128142356873,
                -1.134289026260376
            ],
            "type" : "VEC3"
        },
        {
            "bufferView" : 1,
            "componentType" : 5126,
            "count" : 16445,
            "type" : "VEC3"
        },
        {
            "bufferView" : 2,
            "componentType" : 5126,
            "count" : 16445,
            "type" : "VEC2"
        },
        {
            "bufferView" : 3,
            "componentType" : 5123,
            "count" : 96384,
            "type" : "SCALAR"
        }
    ],
    "bufferViews" : [
        {
            "buffer" : 0,
            "byteLength" : 197340,
            "byteOffset" : 0
        },
        {
            "buffer" : 0,
            "byteLength" : 197340,
            "byteOffset" : 197340
        },
        {
            "buffer" : 0,
            "byteLength" : 131560,
            "byteOffset" : 394680
        },
        {
            "buffer" : 0,
            "byteLength" : 192768,
            "byteOffset" : 526240
        },
        {
            "buffer" : 0,
            "byteLength" : 659788,
            "byteOffset" : 719008
        },
        {
            "buffer" : 0,
            "byteLength" : 210523,
            "byteOffset" : 1378796
        },
        {
            "buffer" : 0,
            "byteLength" : 18915,
            "byteOffset" : 1589320
        }
    ],
    "samplers" : [
        {
            "magFilter" : 9729,
            "minFilter" : 9987
        }
    ],
    "buffers" : [
        {
            "byteLength" : 1608236,
            "uri" : "data:application/octet-stream;base64,"
        }
    ]
}
